<?xml version="1.0" encoding="UTF-8" standalone="no"?>
<svg
   xmlns:dc="http://purl.org/dc/elements/1.1/"
   xmlns:cc="http://creativecommons.org/ns#"
   xmlns:rdf="http://www.w3.org/1999/02/22-rdf-syntax-ns#"
   xmlns:svg="http://www.w3.org/2000/svg"
   xmlns="http://www.w3.org/2000/svg"
   viewBox="0 0 2560 1440"
   height="1440"
   width="2560"
   xml:space="preserve"
   id="svg2"
   version="1.1"><metadata
     id="metadata8"><rdf:RDF><cc:Work
         rdf:about=""><dc:format>image/svg+xml</dc:format><dc:type
           rdf:resource="http://purl.org/dc/dcmitype/StillImage" /></cc:Work></rdf:RDF></metadata><defs
     id="defs6"><clipPath
       id="clipPath18"
       clipPathUnits="userSpaceOnUse"><path
         id="path16"
         d="M 0,1080 H 1920 V 0 H 0 Z" /></clipPath></defs><g
     transform="matrix(1.3333333,0,0,-1.3333333,0,1440)"
     id="g10"><g
       id="g12"><g
         clip-path="url(#clipPath18)"
         id="g14"><g
           transform="translate(819.5518,513.4941)"
           id="g20"><path
             id="path22"
             style="fill:#000000;fill-opacity:1;fill-rule:nonzero;stroke:none"
             d="M 0,0 V 150.141 H 303.734 C 263.718,57.259 171.299,-7.945 63.913,-7.945 41.867,-7.945 20.462,-5.171 0,0 m -197.097,253.065 c 0,23.624 3.211,46.502 9.122,68.281 H -23.548 V 7.177 c -101.027,36.044 -173.549,132.638 -173.549,245.888 m 261.01,261.007 c 111.611,0 207.044,-70.437 244.286,-169.177 h -488.572 c 37.243,98.74 132.675,169.177 244.286,169.177 M 312.543,173.688 H 0 v 147.658 h 315.802 c 5.91,-21.779 9.122,-44.657 9.122,-68.281 0,-27.67 -4.366,-54.331 -12.381,-79.377 m 35.929,79.377 c 0,156.906 -127.654,284.556 -284.559,284.556 -156.905,0 -284.559,-127.65 -284.559,-284.556 0,-156.905 127.654,-284.558 284.559,-284.558 156.905,0 284.559,127.653 284.559,284.558" /></g><path
           id="path24"
           style="fill:#000000;fill-opacity:1;fill-rule:nonzero;stroke:none"
           d="m 1693.203,249.194 h 13.002 v -43.339 h -13.002 z m 12.005,6.112 c -1.533,-1.534 -3.367,-2.296 -5.504,-2.296 -2.14,0 -3.975,0.762 -5.504,2.296 -1.533,1.529 -2.299,3.367 -2.299,5.504 0,2.136 0.766,3.974 2.299,5.503 1.529,1.533 3.364,2.299 5.504,2.299 2.137,0 3.971,-0.766 5.504,-2.299 1.529,-1.529 2.296,-3.367 2.296,-5.503 0,-2.137 -0.767,-3.975 -2.296,-5.504" /><g
           transform="translate(1749.8047,250.4092)"
           id="g26"><path
             id="path28"
             style="fill:#000000;fill-opacity:1;fill-rule:nonzero;stroke:none"
             d="m 0,0 c 4.622,0 8.479,-1.591 11.571,-4.769 3.093,-3.177 4.639,-7.568 4.639,-13.174 V -44.554 H 3.208 v 24.705 c 0,2.54 -0.708,4.49 -2.126,5.85 -1.414,1.356 -3.222,2.038 -5.416,2.038 -2.485,0 -4.449,-0.753 -5.894,-2.255 -1.444,-1.503 -2.167,-3.727 -2.167,-6.674 v -23.664 h -13.001 v 43.339 h 13.001 V -5.287 C -9.793,-1.764 -5.663,0 0,0" /></g><g
           transform="translate(1804.4092,204.6416)"
           id="g30"><path
             id="path32"
             style="fill:#000000;fill-opacity:1;fill-rule:nonzero;stroke:none"
             d="m 0,0 c -6.586,0 -12.063,2.197 -16.423,6.589 -4.365,4.391 -6.545,9.821 -6.545,16.295 0,6.47 2.18,11.903 6.545,16.294 4.36,4.391 9.837,6.59 16.423,6.59 4.161,0 7.989,-1.011 11.486,-3.036 3.496,-2.021 6.199,-4.711 8.105,-8.061 L 8.237,28.086 c -1.563,3.235 -4.364,4.852 -8.41,4.852 -2.832,0 -5.172,-0.939 -7.019,-2.818 -1.852,-1.878 -2.775,-4.289 -2.775,-7.236 0,-2.947 0.923,-5.362 2.775,-7.237 1.847,-1.878 4.187,-2.818 7.019,-2.818 4.104,0 6.904,1.617 8.41,4.853 L 19.591,11.181 C 17.685,7.772 14.996,5.057 11.53,3.035 8.061,1.011 4.219,0 0,0" /></g><g
           transform="translate(232.0361,198.0869)"
           id="g34"><path
             id="path36"
             style="fill:#000000;fill-opacity:1;fill-rule:nonzero;stroke:none"
             d="m 0,0 h -79.316 v -36.024 h 77.735 v -54.669 h -77.735 v -75.84 H -135.88 V 54.669 l 135.88,0 z" /></g><g
           transform="translate(344.2119,85.5889)"
           id="g38"><path
             id="path40"
             style="fill:#000000;fill-opacity:1;fill-rule:nonzero;stroke:none"
             d="m 0,0 c 6.111,-6.318 14.114,-9.479 24.016,-9.479 9.902,0 17.905,3.161 24.016,9.479 6.111,6.32 9.167,14.643 9.167,24.966 0,10.318 -3.056,18.644 -9.167,24.965 -6.111,6.318 -14.114,9.478 -24.016,9.478 C 14.114,59.409 6.111,56.249 0,49.931 -6.111,43.61 -9.163,35.284 -9.163,24.966 -9.163,14.643 -6.111,6.32 0,0 m 57.199,103.966 h 52.454 V -54.035 H 57.199 V -39.5 C 46.456,-52.14 31.494,-58.46 12.327,-58.46 c -21.069,0 -38.71,7.952 -52.932,23.859 -14.22,15.906 -21.331,35.757 -21.331,59.567 0,23.802 7.111,43.657 21.331,59.565 14.222,15.905 31.863,23.861 52.932,23.861 19.167,0 34.129,-6.322 44.872,-18.96 z" /></g><g
           transform="translate(578.0522,85.5889)"
           id="g42"><path
             id="path44"
             style="fill:#000000;fill-opacity:1;fill-rule:nonzero;stroke:none"
             d="m 0,0 c 6.108,-6.318 14.111,-9.479 24.017,-9.479 9.898,0 17.901,3.161 24.016,9.479 6.107,6.32 9.162,14.643 9.162,24.966 0,10.318 -3.055,18.644 -9.162,24.965 -6.115,6.318 -14.118,9.478 -24.016,9.478 C 14.111,59.409 6.108,56.249 0,49.931 -6.114,43.61 -9.166,35.284 -9.166,24.966 -9.166,14.643 -6.114,6.32 0,0 m 35.709,108.392 c 21.062,0 38.71,-7.956 52.929,-23.861 14.219,-15.908 21.331,-35.763 21.331,-59.565 0,-23.81 -7.112,-43.661 -21.331,-59.567 C 74.419,-50.508 56.771,-58.46 35.709,-58.46 c -19.173,0 -34.128,6.32 -44.875,18.96 V -54.035 H -61.621 V 167.167 H -9.166 V 89.432 c 10.747,12.638 25.702,18.96 44.875,18.96" /></g><g
           transform="translate(795.4561,160.167)"
           id="g46"><path
             id="path48"
             style="fill:#000000;fill-opacity:1;fill-rule:nonzero;stroke:none"
             d="m 0,0 c 2.95,10.319 8.851,18.329 17.698,24.016 8.848,5.687 18.747,8.532 29.703,8.532 V -25.597 C 35.394,-23.701 24.491,-25.912 14.694,-32.233 4.9,-38.555 0,-48.877 0,-63.201 v -65.412 H -52.455 V 29.388 l 52.455,0 z" /></g><path
           id="path50"
           style="fill:#000000;fill-opacity:1;fill-rule:nonzero;stroke:none"
           d="m 894.997,189.555 h 52.454 V 31.554 h -52.454 z m 47.557,21.961 c -6.002,-6.002 -13.114,-9.004 -21.33,-9.004 -8.217,0 -15.325,3.002 -21.33,9.004 -6.003,6.005 -9.008,13.113 -9.008,21.33 0,8.216 3.005,15.274 9.008,21.175 6.005,5.893 13.113,8.847 21.33,8.847 8.216,0 15.328,-2.954 21.33,-8.847 6.006,-5.901 9.007,-12.959 9.007,-21.175 0,-8.217 -3.001,-15.325 -9.007,-21.33" /><g
           transform="translate(1166.126,31.5537)"
           id="g52"><path
             id="path54"
             style="fill:#000000;fill-opacity:1;fill-rule:nonzero;stroke:none"
             d="M 0,0 H -58.775 L -103.65,67.308 V 0 h -52.454 v 221.202 h 52.454 V 91.958 l 40.764,66.043 h 60.672 l -53.086,-79 z" /></g><g
           transform="translate(1257.7617,85.5889)"
           id="g56"><path
             id="path58"
             style="fill:#000000;fill-opacity:1;fill-rule:nonzero;stroke:none"
             d="m 0,0 c 6.111,-6.318 14.114,-9.479 24.017,-9.479 9.902,0 17.905,3.161 24.015,9.479 6.112,6.32 9.167,14.643 9.167,24.966 0,10.318 -3.055,18.644 -9.167,24.965 -6.11,6.318 -14.113,9.478 -24.015,9.478 C 14.114,59.409 6.111,56.249 0,49.931 -6.11,43.61 -9.163,35.284 -9.163,24.966 -9.163,14.643 -6.11,6.32 0,0 m 57.199,103.966 h 52.454 V -54.035 H 57.199 V -39.5 C 46.456,-52.14 31.494,-58.46 12.327,-58.46 c -21.069,0 -38.71,7.952 -52.932,23.859 -14.219,15.906 -21.331,35.757 -21.331,59.567 0,23.802 7.112,43.657 21.331,59.565 14.222,15.905 31.863,23.861 52.932,23.861 19.167,0 34.129,-6.322 44.872,-18.96 z" /></g><g
           transform="translate(1611.3643,193.9805)"
           id="g60"><path
             id="path62"
             style="fill:#000000;fill-opacity:1;fill-rule:nonzero;stroke:none"
             d="M 0,0 C 18.329,0 32.813,-5.847 43.451,-17.539 54.086,-29.232 59.41,-45.3 59.41,-65.731 v -96.696 H 6.637 v 90.694 c 0,14.741 -6.532,22.12 -19.591,22.12 -7.166,0 -12.592,-2.37 -16.275,-7.112 -3.689,-4.74 -5.531,-11.217 -5.531,-19.434 v -86.268 h -52.454 v 90.694 c 0,14.741 -6.637,22.12 -19.909,22.12 -7.166,0 -12.592,-2.37 -16.274,-7.112 -3.69,-4.74 -5.532,-11.217 -5.532,-19.434 v -86.268 h -52.454 V -4.426 h 52.454 V -19.279 C -119.239,-6.43 -105.021,0 -86.268,0 -68.152,0 -54.665,-6.745 -45.817,-20.226 -34.868,-6.745 -19.591,0 0,0" /></g></g></g></g></svg>