<svg id="Layer_1" data-name="Layer 1" xmlns="http://www.w3.org/2000/svg" xmlns:xlink="http://www.w3.org/1999/xlink" viewBox="0 0 2986.59 2992.24"><defs><linearGradient id="New_Gradient_Swatch_1" x1="495.65" y1="2303.65" x2="2391.89" y2="407.41" gradientUnits="userSpaceOnUse"><stop offset="0.1" stop-color="#c6192e"/><stop offset="0.9" stop-color="#13b3b6"/></linearGradient><linearGradient id="New_Gradient_Swatch_1-2" x1="-737.37" y1="1070.63" x2="1158.87" y2="-825.6" xlink:href="#New_Gradient_Swatch_1"/><linearGradient id="New_Gradient_Swatch_1-3" x1="599.34" y1="2407.34" x2="2495.58" y2="511.1" xlink:href="#New_Gradient_Swatch_1"/><linearGradient id="New_Gradient_Swatch_1-4" x1="599.44" y1="2407.44" x2="2495.68" y2="511.2" xlink:href="#New_Gradient_Swatch_1"/><linearGradient id="New_Gradient_Swatch_1-5" x1="1936.73" y1="3744.73" x2="3832.97" y2="1848.5" xlink:href="#New_Gradient_Swatch_1"/><linearGradient id="New_Gradient_Swatch_1-6" x1="582.63" y1="2390.63" x2="2478.86" y2="494.39" xlink:href="#New_Gradient_Swatch_1"/><linearGradient id="New_Gradient_Swatch_1-7" x1="321.05" y1="2129.05" x2="2217.29" y2="232.81" xlink:href="#New_Gradient_Swatch_1"/><linearGradient id="New_Gradient_Swatch_1-8" x1="796.68" y1="2604.68" x2="2692.92" y2="708.44" xlink:href="#New_Gradient_Swatch_1"/></defs><title>rdw_ert_icon</title><path d="M271.78,743.61c0-21.59,0-36.26,0-50.92.07-21.31,7.3-32.19,26.95-39.55C352.41,633,406.1,612.92,459.19,591.31q99.1-40.34,196.33-85c55.72-25.64,111-52.22,165.56-80.18q115.24-59.06,226.84-124.76Q1159.07,235.88,1266,163.76c69.09-46.61,136.54-95.5,202.82-146,1.06-.81,2.09-1.66,3.16-2.45,16.06-11.81,29.88-11.94,45.8-.1,19.52,14.52,38.8,29.35,58.35,43.84q117.71,87.29,241.27,166,100.35,64,204.11,122.23c34,19.09,68.46,37.33,102.79,55.79,42.28,22.73,85.29,44.05,128.46,65q106.58,51.76,215.81,97.68c74,31.24,148.83,60.43,224.24,88.11,17,6.26,24.87,18,25.21,36.75.7,39.33-1.55,78.61-1.66,117.92-.09,30.34-1.87,60.6-2.71,90.91-1,36.59-3.23,73.18-5.88,109.7-3.47,47.82-7.24,95.62-12,143.32q-10.41,103.89-26.85,207c-15.12,94.17-34.1,187.51-58.27,279.77-29.86,114-67.24,225.44-114.2,333.58-48.18,111-106,216.69-174.58,316.39a1820.89,1820.89,0,0,1-114.49,148.93,1908.51,1908.51,0,0,1-139.86,146.93C2014.3,2635.6,1958.35,2683,1900.47,2728c-100,77.91-205.1,148.54-311.63,217.1q-34.9,22.45-69.76,45c-7.06,4.55-14.28,8.3-23.09,8.52-9.56.24-17.43-3.58-25.11-8.52-25.21-16.25-50.52-32.34-75.7-48.64-85.34-55.27-170-111.59-251.61-172.22-63.44-47.11-124.85-96.7-183.65-149.55q-61-54.84-117.37-114.43a1789.8,1789.8,0,0,1-210.47-270.09,1894.27,1894.27,0,0,1-135.5-254.87,2174.17,2174.17,0,0,1-80.8-214.09A2661.91,2661.91,0,0,1,339.53,1466q-18.42-94.71-31.31-190.31-10-74.27-16.83-148.92-5.89-64.17-10-128.48c-2.63-41.89-4.56-83.8-6.13-125.75C273.57,827.27,272.6,782,271.78,743.61Zm2375.89-4.81c0-6,.06-12,0-18-.11-10.17-.59-10.92-10.19-14.5q-91.81-34.26-182.23-72-114.43-47.74-226-101.83Q2147.78,493.1,2068,450.3c-50.17-27-100-54.61-149.11-83.56q-71.06-41.89-140.63-86.2-96.15-61.29-188.65-127.9c-29-20.81-57.42-42.29-86.14-63.43-8.12-6-8.7-5.93-16.58-.29-1.35,1-2.64,2-4,3q-93.8,70.78-191.31,136.33Q1188.25,297.65,1081.07,361q-99.84,59.08-202.71,112.63-89.6,46.56-181.18,89.19Q580.2,617.22,460.39,665c-35,14-70.24,27.16-105.37,40.73-12.48,4.82-12.63,4.84-12.4,17.79.17,9.65,1.14,19.3,1.18,28.94.21,50.65,1.62,101.25,3.91,151.86q3.17,69.87,8.17,139.62c2.51,34.89,5.31,69.75,8.93,104.52,5.37,51.67,11.62,103.25,19.09,154.68,12.46,85.78,28.13,171,48,255.32,20.63,87.65,45.37,174.1,75.69,258.93A2044.11,2044.11,0,0,0,588.93,2013,1778.06,1778.06,0,0,0,687,2190.52c64.76,103.12,140,198,224.57,285.49,28.72,29.72,58.66,58.19,89.22,86,46.34,42.23,94.59,82.14,144.23,120.39,109.94,84.73,226.13,160.37,342.77,235.35,5.26,3.38,9.24,3.5,14.41,0,12.67-8.63,25.69-16.74,38.58-25,107.94-69.44,214.69-140.58,316.07-219.48,64.48-50.19,126.34-103.38,184.86-160.42q30.08-29.3,58.73-60,46.18-49.26,88.46-101.84a1714,1714,0,0,0,119-167.94,1828.14,1828.14,0,0,0,127.63-245.47,2133.84,2133.84,0,0,0,78.85-215.88q33.72-110,57.38-222.58c15.14-71.4,27.41-143.31,37.58-215.59q9.48-67.27,16.16-134.89c3.36-33.78,6.23-67.62,8.87-101.48,2.85-36.52,4.78-73.08,7.11-109.62,2-31.57,3.07-63.2,4-94.82C2646.48,808.09,2645.33,773.41,2647.67,738.8Z" transform="translate(-9.85 -6.38)" style="fill:url(#New_Gradient_Swatch_1)"/><path d="M10,293q0-133,0-265.95C10,10,10,10,27.15,10L562,10c16.07,0,16.08,0,16.09,15.9,0,8.66.09,17.33,0,26-.15,10.69-1.28,11.74-12.29,12-3.33.07-6.67,0-10,0l-470.9,0c-16.59,0-16.6,0-16.6,16.24q0,240.45,0,480.9c0,17.17,0,17.18-16.75,17.19-10.66,0-21.33.13-32-.07-8.15-.15-9.24-1.34-9.65-9.22-.15-3-.06-6-.06-9V293Z" transform="translate(-9.85 -6.38)" style="fill:url(#New_Gradient_Swatch_1-2)"/><path d="M294.16,2996.58H25.2c-15.31,0-15.34,0-15.34-15.63q0-268.47,0-536.93c0-15.55.24-15.78,15.47-15.82,9.66,0,19.34-.19,29,.11,8.65.26,9.75,1.56,10.07,10,.12,3.33,0,6.66,0,10q0,238.47,0,476.93c0,17.4-1.1,16.31,16.23,16.31H561.61c16.66,0,16.67,0,16.68,16.23,0,9.67.14,19.34-.07,29-.19,8.57-1.27,9.46-10.09,9.75-3,.09-6,0-9,0Z" transform="translate(-9.85 -6.38)" style="fill:url(#New_Gradient_Swatch_1-3)"/><path d="M2996.27,294q0,134,0,268c0,16.08,0,16.09-15.89,16.1-9.67,0-19.34.16-29-.12-7.21-.22-8.57-1.75-9.07-9-.25-3.65-.12-7.33-.12-11q0-238.47,0-476.94c0-17.13,0-17.15-17-17.15H2447.27c-17.63,0-17.63,0-17.64-17.39,0-8.67-.11-17.34,0-26,.18-9.13,1.21-10,10.61-10.34,2.33-.08,4.66,0,7,0h531.93c17,0,17,0,17,17Q2996.27,160.51,2996.27,294Z" transform="translate(-9.85 -6.38)" style="fill:url(#New_Gradient_Swatch_1-4)"/><path d="M2996.44,2713q0,134,0,268c0,15.41,0,15.44-15.49,15.44q-268.5,0-537,0c-15.43,0-15.68-.26-15.74-15.54,0-8.66-.08-17.33,0-26,.13-12.37,1-13.17,12.93-13.3,3,0,6,0,9,0l475,0c17.19,0,17,1.25,17-16.89q0-236.51,0-473c0-25.75-1.6-22,22.75-22.25,7.66-.09,15.34-.18,23,.11,6.95.26,8,1.42,8.4,8.35.22,3.33.1,6.67.1,10v265Z" transform="translate(-9.85 -6.38)" style="fill:url(#New_Gradient_Swatch_1-5)"/><path d="M1605.21,1453.33c4.72,1.54,9.45,3.07,14.16,4.63,59,19.45,95.46,59.78,111.13,119.52,6.55,25,9,50.53,9.25,76.18.48,53.32.15,106.64.16,160,0,17,.12,34,2.49,50.87,2.75,19.58,7.46,38.54,16.8,56.2,3.79,7.17,2.72,9-5.25,9.11-17.66.25-35.33,0-53,.1-5.9,0-9-3.16-11.33-8.09a156.71,156.71,0,0,1-13.82-46.78,465.21,465.21,0,0,1-4-62.76c.1-54.65,0-109.3.07-164a235.1,235.1,0,0,0-7-58.37c-12.42-49-43.47-79.73-91.77-93.55-23.22-6.64-47-9.6-71-10-34.65-.5-69.31-.16-104-.18-1,0-2,0-3,0-7.66.4-8.7,1.32-9.11,8.67-.19,3.32-.08,6.66-.08,10q0,203.46,0,406.9c0,18.07,0,18.08-18.2,18.09-11.67,0-23.33,0-35,0-14.35-.06-14.79-.52-14.88-14.39,0-1.67,0-3.34,0-5q0-477.87.1-955.75c0-20.5-.94-19,19-19,65.32,0,130.63-.13,195.95.09A273.72,273.72,0,0,1,1610.71,947c59.4,17.73,97.32,56.84,115.51,115.62,7.83,25.3,11,51.29,12.41,77.72,1.81,33.65,1.4,67.29,1,100.91-.28,25.94-1.62,51.91-7.38,77.43-7.81,34.58-22.25,65.57-48.23,90.33-19.68,18.75-43.29,30.83-69,39.15-3.39,1.1-6.77,2.23-10.16,3.34Zm-219.33-243.12h0q0,100.47,0,200.93c0,12.37.57,12.9,13.06,12.93q42,.09,84,0c19-.06,38,.14,56.87-2.24,20.61-2.59,40.72-6.84,59.74-15.43,24.24-11,42.56-28,54.41-52.08,12-24.47,17.08-50.54,17.57-77.34.77-42,.41-84,.18-126a224.43,224.43,0,0,0-8.51-59.18c-8.72-31.22-24.88-57.34-53.35-74.47-20.46-12.32-43-18-66.56-19.15-19.25-1-38.52-1.34-57.86-.69-29,1-58,.22-87,.29-11.71,0-12.45.86-12.6,12.45,0,2.66,0,5.33,0,8Z" transform="translate(-9.85 -6.38)" style="fill:url(#New_Gradient_Swatch_1-6)"/><path d="M820.16,1433q0-238.95,0-477.9c0-21.66.79-19.38,18.92-19.38q179.46,0,358.92,0c16.12,0,16.13,0,16.15,15.84,0,12,.13,24-.08,36-.15,8.43-1.58,9.69-10,10.13-3.32.17-6.66.07-10,.07l-289.95,0c-15.79,0-15.81,0-15.8,16.08q0,182.46,0,364.92c0,15.26,0,15.28,15.57,15.28l238,0c16.61,0,16.61,0,16.63,16.37,0,11.33.07,22.66,0,34-.09,11-.75,11.69-12.15,11.74-19.33.08-38.66,0-58,0l-183,0c-2.66,0-5.33-.07-8,0-7.85.32-8.62,1.06-9,8.58-.12,2.32-.05,4.66-.05,7l0,379.93c0,15.89,0,15.91,15.76,15.91l293.94,0c16.15,0,16.16,0,16.17,15.81,0,12,.13,24-.07,36-.14,8.63-1.45,9.81-9.84,10.3-2.66.15-5.33.06-8,.06l-358.92,0c-17.23,0-17.26,0-17.26-17q0-240,0-479.9Z" transform="translate(-9.85 -6.38)" style="fill:url(#New_Gradient_Swatch_1-7)"/><path d="M2103.89,1463.1v449c0,17.81,0,17.82-17.49,17.82-13.33,0-26.66.15-40-.08-9-.16-10.21-1.55-10.5-10.68-.14-4.32-.05-8.66-.05-13q.06-446,.11-891.95c0-18.92,1.13-17.74-18.08-17.74q-84.5,0-169,0c-15.06,0-15.08,0-15.11-14.85,0-11,0-22,0-33,.07-12.26.51-12.64,13.2-12.75h4l436,0c17.26,0,17.26,0,17.26,17.71,0,10.33.08,20.67,0,31-.12,11-.88,11.75-12.17,11.77q-66,.09-132,0c-14.34,0-28.67,0-43,0-13,0-13.16.26-13.23,13.68,0,2.67,0,5.33,0,8v445Z" transform="translate(-9.85 -6.38)" style="fill:url(#New_Gradient_Swatch_1-8)"/></svg>