<svg id="Layer_1" data-name="Layer 1" xmlns="http://www.w3.org/2000/svg" xmlns:xlink="http://www.w3.org/1999/xlink" viewBox="0 0 2997.47 2996.63"><defs><linearGradient id="New_Gradient_Swatch_1" x1="1282.68" y1="3197.68" x2="3332.73" y2="1147.64" gradientUnits="userSpaceOnUse"><stop offset="0.1" stop-color="#c6192e"/><stop offset="0.9" stop-color="#13b3b6"/></linearGradient><linearGradient id="New_Gradient_Swatch_1-2" x1="362.47" y1="2277.47" x2="2412.51" y2="227.42" xlink:href="#New_Gradient_Swatch_1"/><linearGradient id="New_Gradient_Swatch_1-3" x1="107.36" y1="2022.36" x2="2157.41" y2="-27.69" xlink:href="#New_Gradient_Swatch_1"/><linearGradient id="New_Gradient_Swatch_1-4" x1="1407.18" y1="3322.18" x2="3457.23" y2="1272.13" xlink:href="#New_Gradient_Swatch_1"/><linearGradient id="New_Gradient_Swatch_1-5" x1="1230.93" y1="3145.93" x2="3280.97" y2="1095.88" xlink:href="#New_Gradient_Swatch_1"/><linearGradient id="New_Gradient_Swatch_1-6" x1="1059.53" y1="2974.53" x2="3109.58" y2="924.49" xlink:href="#New_Gradient_Swatch_1"/></defs><title>rdw_end_to_end_shield_icon</title><path d="M3002,1805c-1.81,12.69-9,22.5-16.53,32.4q-85.28,112.17-170.2,224.63-56.43,74.47-113,148.81a78,78,0,0,1-8.51,9.79c-9.18,8.58-20.26,8.44-29.54-.08-12.47-11.44-14.93-34.28-4.71-49.76,6.41-9.72,13.72-18.85,20.76-28.14q39.24-51.77,78.57-103.47Q2844,1927,2929.15,1814.67c10.35-13.67,11.6-11.28.39-26.07q-94.48-124.63-189-249.26-39-51.36-78-102.67c-10.7-14.07-11.92-29.24-5-45.18,8.23-18.92,30.45-18.65,41.09-4.21,32.41,44,65.82,87.21,98.82,130.75L2981,1760.13c.6.8,1.19,1.61,1.84,2.37,9.22,10.67,17.36,21.91,19.12,36.5Z" transform="translate(-4.53 -6.96)" style="fill:url(#New_Gradient_Swatch_1)"/><path d="M2567.85,629.65c-2,36.62-1.07,73.29-2,109.93q-1.26,46.92-4,93.82c-2.25,38.54-4.71,77.1-8,115.57-10.78,125.23-27.7,249.61-54.1,372.57-18.76,87.39-41.71,173.69-71,258.2a1893.2,1893.2,0,0,1-72.09,178.88,1609.36,1609.36,0,0,1-122.78,218.56,1564,1564,0,0,1-114.56,150.1,1679.47,1679.47,0,0,1-118.22,123.37c-51.84,49-106.59,94.69-163.38,137.91-84.15,64-172.06,122.59-261,179.67q-22.31,14.31-44.51,28.77c-2,1.26-3.93,2.51-5.86,3.82-15.63,10.55-30.78,9.79-46.56-.44-60.39-39.18-121-78-180.57-118.45-72.24-49.14-142.65-100.75-209.64-156.88-30.13-25.24-59.26-51.65-88-78.52-28.52-26.66-55.68-54.61-82-83.32a1555.3,1555.3,0,0,1-122-150.58,1580.42,1580.42,0,0,1-100-160.19c-47.32-86.83-86.33-177.28-118.62-270.73-35.78-103.53-62.61-209.37-83.26-316.86-12.51-65.13-22.46-130.66-30.28-196.52q-7-59-12-118.26-4.89-57.26-7.89-114.61c-1.78-33.27-2.64-66.57-4.15-99.83-2-43-.76-86-1.84-128.94-.52-20.56,9.76-33.46,27.91-40,81.83-29.59,162.5-62.09,242.23-96.91q118.69-51.84,233.57-111.7Q1043.38,306,1140.2,247.66C1232.41,192,1322.31,132.84,1409.11,69c23.1-17,46-34.17,69-51.32,18.93-14.14,31.68-14.51,50.72-.1,29.5,22.32,59,44.61,89.09,66.15q102.84,73.7,210.36,140.38,79.57,49.08,161.39,94.31,30.63,16.91,61.68,33c29.58,15.35,59.14,30.76,89.06,45.42q119.89,58.71,243.32,109.63,78.17,32.07,157.54,61c17.14,6.23,25.66,18.33,26.52,36.09C2568.2,612.31,2567.85,621,2567.85,629.65Zm-72,35c0-9.33,0-18.66,0-28-.06-11.15-.21-11.49-10.37-15.39-18.05-6.94-36.21-13.55-54.21-20.6-70.12-27.51-139.58-56.58-208.17-87.77-70.71-32.16-140.3-66.56-209.06-102.67-77.63-40.77-153.5-84.58-228-130.83q-118.56-73.62-231.1-156.08c-14.78-10.84-29.47-21.8-44.22-32.68-7.2-5.3-7.41-5.28-14.73,0-1.08.78-2.11,1.64-3.17,2.44q-69,52.2-140.45,100.93Q1252,262.5,1147.3,324.25q-98.16,58-199.64,109.91-51.61,26.43-104,51.29-53.31,25.24-107.27,49.05-106.23,46.61-214.93,87.13c-9.11,3.4-9.62,3.89-9.47,13.86.5,33.64.28,67.27,1.54,100.93,1.73,45.94,3.63,91.84,6.43,137.72q2.79,45.89,6.9,91.65,5.35,59.7,13.11,119.16c7.08,54.87,15.44,109.53,25.69,163.88,16.37,86.87,37.19,172.62,63.56,257a1798.73,1798.73,0,0,0,94.65,241.85,1526.91,1526.91,0,0,0,114.73,199c51,74.87,108.76,144.12,171.92,208.91,34.91,35.81,71.81,69.56,109.82,102,68.23,58.3,140.22,111.68,214.36,162.18,52.62,35.83,106,70.47,159.41,105.17,7,4.58,12.15,4.39,18.85-.08,20.8-13.86,42-27.07,62.93-40.77,81.68-53.55,162.62-108.17,239.65-168.35,47.3-37,93.16-75.6,136.73-116.85,39.69-37.58,77.75-76.79,113.35-118.36,34.5-40.29,67.26-81.9,97.38-125.54a1535.7,1535.7,0,0,0,129.26-226.31A1834.07,1834.07,0,0,0,2365.76,1544c25.76-76.17,46.33-153.79,63.31-232.35,16.2-74.94,28.66-150.55,38.37-226.59q9.12-71.34,14.94-143c2.66-32.86,4.79-65.74,7.16-98.61,2-27.23,3.39-54.53,3.88-81.81C2494,729.29,2495.05,697,2495.86,664.69Z" transform="translate(-4.53 -6.96)" style="fill:url(#New_Gradient_Swatch_1-2)"/><path d="M354.29,2192.66a40.5,40.5,0,0,1-6,21.89c-9.41,15.37-26.81,16.92-38.39,3.11-7.48-8.93-14.3-18.42-21.35-27.71Q165.64,2027.89,42.78,1865.8c-9.05-11.94-18.21-23.81-27.2-35.81C.9,1810.43.8,1792.73,15.51,1773.31q120.4-158.93,240.9-317.78,23.85-31.47,47.72-62.9a87.39,87.39,0,0,1,8.46-9.84c9.22-9,20.85-9,30.36-.4,12.75,11.56,15.2,33.9,5.05,49.68-4.5,7-9.76,13.49-14.8,20.12q-64.92,85.61-129.89,171.17-63.72,84-127.41,168c-7.28,9.61-9.24,8.26-.16,20.23q132,173.94,264,347.95c2.41,3.19,4.88,6.34,7.15,9.62A41.34,41.34,0,0,1,354.29,2192.66Z" transform="translate(-4.53 -6.96)" style="fill:url(#New_Gradient_Swatch_1-3)"/><path d="M1974.56,2877.18c0,68.41-53.54,122.49-121.57,122-68.69-.45-121.36-55.84-121.49-122.8-.12-66.08,50.1-123.35,121.84-123.16C1925.42,2753.45,1975.17,2811.92,1974.56,2877.18Zm-121.38,83.54c45.6,0,82.59-37.71,82.49-84-.1-45.85-36.88-83.15-82.18-83.32-45.5-.17-83,37.62-83.06,83.63C1770.41,2923.37,1807.35,2960.74,1853.18,2960.72Z" transform="translate(-4.53 -6.96)" style="fill:url(#New_Gradient_Swatch_1-4)"/><path d="M1622.42,2876.33c0,68.58-54.22,123.45-122.14,122.92-70.91-.56-121.36-59.4-121.12-123.17.23-63.4,48-123.1,122.15-122.84C1571,2753.48,1622.18,2809.26,1622.42,2876.33ZM1501.2,2960.7c45.61-.1,82.59-37.95,82.3-84.24-.29-45.62-37.54-83.08-82.61-83.08-45.77,0-82.63,37.45-82.58,83.91S1455.18,2960.79,1501.2,2960.7Z" transform="translate(-4.53 -6.96)" style="fill:url(#New_Gradient_Swatch_1-5)"/><path d="M1154.34,3003.59c-60.51.11-111-43-120.63-103.08-11.29-70.14,37.19-134.44,108-141.89,43.36-4.55,79.58,11,106.32,45.28,47.6,61,30,146.95-37.17,185.37C1195.47,2998.11,1174,3003.55,1154.34,3003.59Zm-.44-206.32c-45.94-1.14-82.66,40.74-82.53,83.71.13,44.43,37.9,84,82.88,83.63s81.37-37.64,81.33-83.86C1235.53,2834.79,1198.84,2797.28,1153.9,2797.27Z" transform="translate(-4.53 -6.96)" style="fill:url(#New_Gradient_Swatch_1-6)"/></svg>