<svg xmlns="http://www.w3.org/2000/svg" viewBox="0 0 566.12 203.41">
    <defs>
        <style>
            .cls-1{fill:#fff;}.cls-2{fill:#d0d2d3;}.cls-3{fill:#b4121b;}.cls-4{fill:#faaf3f;}.cls-5{fill:#00843f;}.cls-6{fill-rule:evenodd;}
        </style>
    </defs>
    <rect class="cls-1" width="566.12" height="203.41"/>
    <path d="M248.84,246.5a10.59,10.59,0,1,1,10.59,10.59,10.59,10.59,0,0,1-10.59-10.59Z" transform="translate(-106.44 -191.73)"/>
    <path class="cls-2" d="M172.28,246.5a10.59,10.59,0,1,1,10.59,10.59,10.59,10.59,0,0,1-10.59-10.59Z" transform="translate(-106.44 -191.73)"/>
    <path class="cls-2" d="M197.69,246.5a10.59,10.59,0,1,1,10.59,10.59,10.59,10.59,0,0,1-10.59-10.59Z" transform="translate(-106.44 -191.73)"/>
    <path class="cls-2" d="M248.89,272.25a10.59,10.59,0,1,1,10.59,10.59,10.6,10.6,0,0,1-10.59-10.59Z" transform="translate(-106.44 -191.73)"/>
    <path class="cls-3" d="M223.24,246.5a10.59,10.59,0,1,1,10.59,10.59,10.59,10.59,0,0,1-10.59-10.59Z" transform="translate(-106.44 -191.73)"/>
    <path class="cls-4" d="M223.24,272.25a10.59,10.59,0,1,1,10.59,10.59,10.6,10.6,0,0,1-10.59-10.59Z" transform="translate(-106.44 -191.73)"/>
    <path class="cls-2" d="M198,298a10.59,10.59,0,1,1,10.59,10.59A10.58,10.58,0,0,1,198,298Z" transform="translate(-106.44 -191.73)"/>
    <path class="cls-5" d="M223.24,298a10.59,10.59,0,1,1,10.59,10.59A10.59,10.59,0,0,1,223.24,298Z" transform="translate(-106.44 -191.73)"/>
    <path class="cls-6" d="M318.46,264.19v-6.84H308.07c-12.86,0-16.44-.79-16.44,12.47v38.35h7.78l0-44Z" transform="translate(-106.44 -191.73)"/>
    <path class="cls-6" d="M331,257.1v7.39c18.78,0,22.13.87,22.13,10.59H339.09c-10.75,0-16.95,2-16.95,16.7A26.78,26.78,0,0,0,323,299h0c2.09,7.5,8,8.91,15.69,8.91,5.46,0,11.82-.21,14.31-6.28v6.47h8V274.25C361,256.76,348.61,257.1,331,257.1ZM349.92,299c-2.4,1.81-6,1.87-9.52,1.87-3.92,0-6.65-.15-8.31-1.87h0c-1.35-1.41-2-3.87-2-8.15,0-8.11,3-8.74,10.29-8.69,5.49,0,12.4,0,12.4,0v9.36c0,3.88-1.12,6.15-2.88,7.48h0Z" transform="translate(-106.44 -191.73)"/>
    <path class="cls-6" d="M404.09,238.66v18.44H388.87c-16.83,0-18.44,10.56-18.44,25.54,0,6.47.3,12.06,2,16.33h0c2.23,5.72,6.89,9.08,16.47,9.08,13.66,0,15.21-7.18,15.21-7.18v7.21h7.82v-69.4ZM399.92,299c-1.86,1.25-4.5,1.72-8.24,1.72s-6.65-.31-8.62-1.73h0c-2.92-2.1-4-6.63-4-16.17,0-16.15,2.38-18,12.64-18,7,0,12.43-.07,12.42,0,0,2.87,0,13.42,0,18,0,9.14-.8,13.92-4.15,16.17h0Z" transform="translate(-106.44 -191.73)"/>
    <polygon class="cls-6" points="375.89 65.37 368.4 65.37 360.09 101.13 348.18 65.37 341.73 65.37 330.14 101.13 321.2 65.37 313.18 65.37 325.68 116.33 332.88 116.33 344.74 77.92 356.67 116.33 363.9 116.33 375.89 65.37"/>
    <path class="cls-6" d="M493.34,257.1s0,7.39,0,7.39c18.78,0,22.14.87,22.14,10.59h-14.1c-10.74,0-16.94,2-16.94,16.7a26.81,26.81,0,0,0,.83,7.18h0c2.09,7.5,8,8.91,15.7,8.91,5.46,0,11.82-.21,14.3-6.28v6.47h8V274.25C523.25,256.76,510.9,257.1,493.34,257.1ZM512.21,299c-2.39,1.81-6,1.87-9.52,1.87-3.91,0-6.64-.15-8.3-1.87h0c-1.35-1.41-2-3.87-2-8.15,0-8.11,3-8.74,10.3-8.69,5.49,0,12.41,0,12.41,0v9.36c0,3.88-1.12,6.15-2.88,7.48h0Z" transform="translate(-106.44 -191.73)"/>
    <path class="cls-6" d="M558.46,264.19v-6.84h-10.4c-12.87,0-16.44-.79-16.44,12.47v38.35h7.78l0-44Z" transform="translate(-106.44 -191.73)"/>
    <path class="cls-6" d="M583.68,256.34c-20.58,0-27.23,27.54-17.31,42.62h0c3.86,5.88,10.22,9.87,19.26,9.62a44.12,44.12,0,0,0,17.61-4.18s0-8.18,0-8.2A30.09,30.09,0,0,1,597,299h0c-5.85,1.93-13.93,3.15-19.74,0h0c-4.28-2.32-7.32-7-7.32-15.51H604S608.08,256.34,583.68,256.34ZM570,276.15c.62-4.34,3.55-12.91,14.1-12.91s12.17,8.25,12.36,12.91Z" transform="translate(-106.44 -191.73)"/>
</svg>
