<svg id="Layer_1" data-name="Layer 1" xmlns="http://www.w3.org/2000/svg" xmlns:xlink="http://www.w3.org/1999/xlink" viewBox="0 0 2994.31 2996.28"><defs><linearGradient id="New_Gradient_Swatch_1" x1="219.13" y1="3159.13" x2="2485.85" y2="892.4" gradientUnits="userSpaceOnUse"><stop offset="0.1" stop-color="#c6192e"/><stop offset="0.9" stop-color="#13b3b6"/></linearGradient><linearGradient id="New_Gradient_Swatch_1-2" x1="-378.7" y1="2561.3" x2="1888.03" y2="294.57" xlink:href="#New_Gradient_Swatch_1"/><linearGradient id="New_Gradient_Swatch_1-3" x1="1087.33" y1="4027.33" x2="3354.06" y2="1760.61" xlink:href="#New_Gradient_Swatch_1"/><linearGradient id="New_Gradient_Swatch_1-4" x1="119.83" y1="3059.83" x2="2386.56" y2="793.1" xlink:href="#New_Gradient_Swatch_1"/><linearGradient id="New_Gradient_Swatch_1-5" x1="351.21" y1="3291.21" x2="2617.93" y2="1024.48" xlink:href="#New_Gradient_Swatch_1"/><linearGradient id="New_Gradient_Swatch_1-6" x1="574.21" y1="3514.21" x2="2840.93" y2="1247.48" xlink:href="#New_Gradient_Swatch_1"/></defs><title>rdw_ssl_icon</title><path d="M416,3002c-.18-4.66-.52-9.31-.52-14q0-840.9,0-1681.81c0-16,0-16.07,15.92-16.08h229c17.51,0,17.66-.15,17.66-18,0-165-.35-330,.21-494.95.23-67,10.71-132.66,30.34-196.85a732.92,732.92,0,0,1,45-113.2A791.83,791.83,0,0,1,847.7,321.2a772.67,772.67,0,0,1,77-82.53,867.78,867.78,0,0,1,150-110.91A876.92,876.92,0,0,1,1251.52,49a888.58,888.58,0,0,1,160.77-35.65c37.73-4.66,75.51-7.67,113.55-7.62C1579.37,5.78,1632.2,12,1684.48,23a807.24,807.24,0,0,1,222.11,82.89,868.73,868.73,0,0,1,137.74,93.86,806.4,806.4,0,0,1,148.28,162.79c44.44,64.35,79.07,133.5,102.73,208.09a703.33,703.33,0,0,1,29.1,138.66,710.67,710.67,0,0,1,3.8,75.8q-.15,242,0,483.94c0,4-.16,8,.21,12,.61,6.42,3.73,9.55,10.16,10.24a103.15,103.15,0,0,0,11,.22q114,0,228,0c14.18,0,14.38.19,14.38,14.63q.06,844.91.11,1689.81c0,2,0,4,0,6Zm1087.09-70.64v.1H2498c4.34,0,8.69.18,13-.18,7-.58,10.06-3.69,10.66-10.77.31-3.64.16-7.32.16-11q.06-763.41.13-1526.82c0-20.78,0-20.84-20.41-20.83q-289.47.08-578.93.17-520.44.06-1040.88,0-190.47,0-381-.08c-13.71,0-14.8,1.18-14.92,14.8v2q0,767.4,0,1534.81a70.84,70.84,0,0,0,.26,9c.76,5.85,3.09,8.09,9.11,8.6,4,.34,8,.17,12,.17Zm.87-1641.29v0q256.44,0,512.89,0c3.67,0,7.34.11,11-.06,8.94-.42,11.23-2.68,11.72-11.35.09-1.66,0-3.33,0-5q0-243-.06-485.9a385,385,0,0,0-4.53-56.72c-7.71-51.56-24.31-100.14-48.47-146.36-30.22-57.8-71.38-106.85-119.66-150A535.1,535.1,0,0,0,1728.13,345c-58.08-26-118.75-42-182.14-46.21-35.19-2.32-70.63-2.27-105.82,1.79a536.07,536.07,0,0,0-165.79,46.52c-84.72,39.43-155.46,96.44-211.42,171.26C1000.38,602,967.16,695.45,967.82,801c1,156.29.27,312.6.29,468.9a108.71,108.71,0,0,0,.22,11c.6,6,2.83,8.31,8.75,9a111.13,111.13,0,0,0,12,.27Zm754.21-289.24c0-78.33-.13-156.66.07-235a542.55,542.55,0,0,0-6.33-85.6c-15.47-98.86-52.93-188.94-109-271.41a764.21,764.21,0,0,0-120.13-137.36,786.6,786.6,0,0,0-89.51-70.35,750.3,750.3,0,0,0-209.24-98C1673.22,88.41,1621.4,79,1568.66,76.7c-43.57-1.91-87.24-1.7-130.78,3.15-35.15,3.91-70,9.21-104.42,17.41-72,17.15-140.7,43.05-205.71,78.74A792.64,792.64,0,0,0,962.16,297.44,741.59,741.59,0,0,0,871,402.06C823.65,468,788.86,539.87,768.09,618.43a601.68,601.68,0,0,0-19.77,154.22q-.06,246.48,0,493c0,4.33-.14,8.67,0,13,.34,8.79,2.58,11,11.57,11.43,2.33.13,4.66.06,7,.06h112c18.4,0,18.93-.54,18.93-19.26q0-227.49.06-455c0-16,.33-31.94,1.39-47.94a522.3,522.3,0,0,1,25.38-129.1c18.28-55.53,45.07-106.76,79-154.29a589.73,589.73,0,0,1,130.59-132.69c61.18-45.18,128.09-78.9,201.24-100.1a622.41,622.41,0,0,1,137.63-23.58,560.08,560.08,0,0,1,104.73,4.06,614.28,614.28,0,0,1,176.34,50C1837.5,320.22,1910,373,1970,442.5a584.14,584.14,0,0,1,74,107.7c43.17,81.26,65.15,167.59,64.59,260.08-.93,152.66-.23,305.32-.21,458,0,3-.06,6,0,9,.31,10.46,2.49,12.58,13.28,12.89,2,.06,4,0,6,0h113c2.34,0,4.67.07,7-.05,9.47-.48,11.82-3.17,11.22-12.33-.37-5.65-.71-11.31-.71-17Q2258.14,1130.83,2258.17,1000.83Z" transform="translate(-6 -5.72)" style="fill:url(#New_Gradient_Swatch_1)"/><path d="M6,2144.88q0-416.43,0-832.87,0-6,.14-12c.11-4.68,2.22-7.72,7.19-7.75q24-.13,48,0c5,0,7.11,2.9,7,7.73-.06,2.66,0,5.33,0,8q0,837.36,0,1674.73c0,15.71,0,15.72-16.13,15.73-12.33,0-24.66.13-37-.07-7.69-.13-8.7-1.22-9.17-8.62-.24-3.65-.1-7.33-.1-11Q6,2561.82,6,2144.88Z" transform="translate(-6 -5.72)" style="fill:url(#New_Gradient_Swatch_1-2)"/><path d="M3000.31,2146v833c0,4-.1,8-.1,12,0,5-2.66,7.23-7.49,7.23q-23.5,0-47,0c-4.95,0-7.35-2.46-7.47-7.31-.08-3-.14-6-.14-9q0-836.49.07-1673c0-16.77,0-16.79,16.52-16.81,11.67,0,23.34-.16,35,.09,9,.2,10.15,1.61,10.43,10.76.12,4,0,8,0,12v831Z" transform="translate(-6 -5.72)" style="fill:url(#New_Gradient_Swatch_1-3)"/><path d="M1063.17,2486.56c-32.4.9-63.87-3.71-93.85-16.31-39.57-16.64-66.89-45.28-82.19-85.33-9-23.6-13.21-48.13-13.48-73.35-.13-12-.17-24,0-36,.12-8.92,1.13-10,9.62-10.15q19-.29,38,0c8,.14,9,1.24,9.19,9.56.37,18.64-.5,37.3,1.74,55.91,2.1,17.35,6,34.11,13.9,49.78,14.34,28.25,37.55,45.54,67.78,53.23,34.6,8.81,69.32,8.68,103.55-2.2,32.64-10.37,55.18-31.83,66.38-64.22,9.73-28.15,12.87-57.2,7.1-86.68-4.86-24.82-16.85-46.14-33.81-64.77-19.44-21.36-42-39-66.32-54.32-28.45-18-57.26-35.38-85.79-53.23-25.76-16.13-50.39-33.83-72-55.32-29.14-29-49.71-62.75-54.2-104.38-4.21-39-.49-77.31,15.61-113.58,16.53-37.22,44.36-63.28,82.44-77,54.66-19.73,110.43-20.91,165.9-3.68,51.64,16,84.57,51.38,100.08,103,7.46,24.79,9.86,50.29,9.31,76.08-.18,8.5-1.53,10-10,10.14q-19,.39-38,0c-8.33-.16-9.68-1.65-9.92-10.21-.43-15.3.37-30.62-2.34-45.86-3-16.59-8.12-32.28-16.65-46.82-12.16-20.74-30.17-34.45-52.44-42.65s-45.33-10.17-68.84-8.56c-8.65.59-17.27,1.16-25.79,3-43.33,9.19-72.15,34.27-84.27,77.31-6.95,24.66-9,49.81-4.88,75.18,4.44,27.51,17.59,50.76,36.26,71.1,22.3,24.3,49,43.06,76.65,60.55,28.45,18,57.7,34.68,85.74,53.32,20,13.31,39.52,27.34,56.86,44,29.3,28.15,51.09,61,56.45,102.15,6.37,48.81.4,95.82-26.48,138.38-17.71,28.05-43,46.94-74,58.39C1122.32,2483.41,1093.1,2487.41,1063.17,2486.56Z" transform="translate(-6 -5.72)" style="fill:url(#New_Gradient_Swatch_1-4)"/><path d="M1526.2,2486.54c-34.13.77-66.49-4-97.25-17.69-42.54-19-69.71-51.29-83.3-95.46-6.7-21.82-9.59-44.23-9.83-67-.11-10.67-.18-21.34.09-32,.19-7.52,1.45-8.78,8.87-8.91,13-.22,26-.19,39,0,8.69.11,9.84,1.18,10,9.89.31,16.65-.07,33.33.53,50a136,136,0,0,0,13.52,53.92c11.14,23.32,28.92,40.26,52.8,49.34,41.72,15.86,84.23,15.79,126.19.72,28.22-10.13,47.47-30.47,58.18-58.32a164.79,164.79,0,0,0,7.9-92.4c-5.39-27.41-20.26-49.85-39.43-69.46-21.8-22.32-47.49-39.69-73.79-56.19-31.61-19.84-64.1-38.26-94.83-59.51-21.16-14.64-41.08-30.77-58.42-49.85-21.72-23.9-37.67-51.12-43.19-83.2-8.38-48.68-3.18-95.78,21.24-139.47,18.24-32.64,46.71-53.27,81.65-65.32a221.27,221.27,0,0,1,65.67-11.82c23-.71,46-.86,68.68,4,30.43,6.54,58.59,17.72,81.93,39.19,26.36,24.25,40.47,54.94,47.5,89.37a242.61,242.61,0,0,1,4.41,56.68c-.29,9.11-1.43,10.53-10.43,10.71q-18.48.38-37,0c-8-.16-9.27-1.46-9.24-9.56.06-17.37-.83-34.66-4.3-51.69-4.39-21.54-12.53-41.38-27.74-57.84-18.83-20.39-43-29.84-69.66-33.75a188.51,188.51,0,0,0-63.61,1.4c-52,10.14-80.72,42.86-89.75,93.35a182.31,182.31,0,0,0-1.23,58.73c4.15,28.34,18.09,52,37.1,72.83,15.59,17.11,33.8,31.11,52.77,44.2,31,21.41,63.91,39.82,95.67,60,27.87,17.75,54.95,36.61,78,60.57s40.48,51.45,46.87,84.53c9.69,50.15,3.44,98.34-21.69,143.15-17.34,30.92-44.34,50.91-77.24,63.29C1584.62,2483.57,1555.39,2487.35,1526.2,2486.54Z" transform="translate(-6 -5.72)" style="fill:url(#New_Gradient_Swatch_1-5)"/><path d="M1805.87,2115q0-174.49,0-349c0-16.43,0-16.43,16.55-16.44,11.34,0,22.67-.13,34,.07,8.08.14,9.13,1.33,9.53,9.34.16,3.33.06,6.67.06,10q0,323.51,0,647c0,18.65-1.19,18.17,17.85,18.16q120,0,240,0c16.53,0,16.53,0,16.54,16.47,0,7,.17,14-.09,21-.28,7.4-1.41,8.35-9,8.76-2.33.13-4.67.06-7,.06l-303,0c-15.47,0-15.51,0-15.51-15.46q0-175,0-350Z" transform="translate(-6 -5.72)" style="fill:url(#New_Gradient_Swatch_1-6)"/></svg>