<svg id="Layer_1" data-name="Layer 1" xmlns="http://www.w3.org/2000/svg" xmlns:xlink="http://www.w3.org/1999/xlink" viewBox="0 0 2989.65 2990.27"><defs><linearGradient id="New_Gradient_Swatch_1" x1="159.62" y1="2719.5" x2="2718.68" y2="160.44" gradientUnits="userSpaceOnUse"><stop offset="0.1" stop-color="#c6192e"/><stop offset="0.9" stop-color="#13b3b6"/></linearGradient><linearGradient id="New_Gradient_Swatch_1-2" x1="-716.97" y1="1842.92" x2="1842.1" y2="-716.14" xlink:href="#New_Gradient_Swatch_1"/><linearGradient id="New_Gradient_Swatch_1-3" x1="-180.19" y1="2379.69" x2="2378.87" y2="-179.37" xlink:href="#New_Gradient_Swatch_1"/><linearGradient id="New_Gradient_Swatch_1-4" x1="-301.45" y1="2258.43" x2="2257.61" y2="-300.63" xlink:href="#New_Gradient_Swatch_1"/><linearGradient id="New_Gradient_Swatch_1-5" x1="235.39" y1="2795.27" x2="2794.45" y2="236.21" xlink:href="#New_Gradient_Swatch_1"/><linearGradient id="New_Gradient_Swatch_1-6" x1="114.14" y1="2674.02" x2="2673.2" y2="114.96" xlink:href="#New_Gradient_Swatch_1"/></defs><title>rdw_dedicated_security_hardware_icon</title><path d="M2595.21,875.66c9.42,7.16,19.25,13.91,28.27,21.62,46.34,39.64,74.7,89.44,84.08,149.92,2,12.92,2.08,25.85,2.08,38.83,0,89.24-.56,178.48.3,267.7.41,43.6,1.26,87.2,1,130.8-.25,38.88-5.18,76.85-21.68,112.83-19.39,42.3-48.29,76.23-86.38,102.56-7.45,5.14-11.47,4.71.25,12.87,60.72,42.28,96.37,100.17,105.65,173.62,2.79,22.08,2.79,44.49,2.3,66.81-.19,8.32.35,16.67-.14,25-.46,8,2.4,12.75,9.63,16.63,30.19,16.23,60.17,32.81,91,47.9q53.83,26.37,109.34,48.86c17,6.87,34,13.53,51.32,19.51,15.94,5.51,23.81,16.7,24.46,32.84.6,14.61.79,29.28-.64,43.9-.51,5.3-.65,10.63-.72,16-.59,45-4.94,89.63-9.53,134.32s-13.15,88.91-23.33,132.65a842.36,842.36,0,0,1-43.58,135.76,748.91,748.91,0,0,1-47.75,94.34,651.61,651.61,0,0,1-56.68,79.63,642.1,642.1,0,0,1-57.16,61.31c-18,16.81-36.48,33.06-55.82,48.32-37.14,29.29-76,56.08-115.76,81.72-10.63,6.85-21.4,13.48-32,20.38-12.07,7.88-24.51,8.1-36.66.53-38.69-24.13-76.8-49.13-113.64-76.06-28.51-20.85-56.19-42.67-82-66.76a733,733,0,0,1-92.17-103.44c-31.41-43-56.63-89.28-77.49-138.1-3.92-9.18-7.73-18.42-11.18-27.78-1.9-5.14-5.06-7.47-10.45-7.3-4.32.14-8.66,0-13,0H260.15c-44,0-86.15-8.11-124.83-29.89Q28.27,2483.13,9.46,2361.48c-1.62-10.6-1.86-21.21-1.86-31.86,0-138.52-.43-277,.15-415.55.36-85.48,37.64-152.21,106.79-201.64,9.24-6.6,9.28-6.34-.18-13Q21,1634.07,8.24,1520.75c-.82-7.25-.6-14.63-.61-22,0-138.52-.42-277,.15-415.55C8.13,996.94,46,929.88,116,880.38c.27-.19.56-.36.83-.55,7-4.82,7.11-5-.32-10a241.58,241.58,0,0,1-76.6-81.49C19.29,752.46,7.77,713.89,7.74,672.31c-.1-142.18-.46-284.36.2-426.53.29-61.6,23.47-114.92,65.19-159.9,39.25-42.31,88-67.13,145.12-75.26A275.81,275.81,0,0,1,257.05,8q756.17.2,1512.34.2,346.13,0,692.24,0c59.31,0,112.91,17.31,158.91,55.31,48.43,40,77.84,91.11,87.13,153.54a216.55,216.55,0,0,1,1.95,31.85c0,140.18.42,280.36-.14,420.54-.34,85-38.52,150.46-106.75,199.5C2600.14,870.85,2596.52,871.62,2595.21,875.66Zm-1236-795.72H1123.47q-432.54,0-865.06,0c-13.31,0-26.6-.14-39.8,2.37C174,90.84,138.37,113.7,111.51,150c-23,31.05-33,66.5-33,104.86q-.1,200.79,0,401.57A289.79,289.79,0,0,0,80,686.32,170.13,170.13,0,0,0,205.44,833.49c17.91,4.79,36,5.67,54.41,5.66q786.14,0,1572.28.1,318.16,0,636.31.09c45.54,0,85-15.63,117.7-46.64,34.4-32.61,52.8-73.4,52.93-121.06.4-141.51.14-283,.17-424.54a154.68,154.68,0,0,0-2.08-23.83c-10.89-70.09-65.69-126.94-135.39-140.57C2487.92,80,2474,79.93,2460,79.93Zm0,831.09v0h-94.89l-1005.84,0c-13.3,0-26.59-.13-39.79,2.39C174.5,922,139,944.37,112.15,980.27c-23.33,31.24-33.61,66.93-33.62,105.67q-.07,197.77,0,395.55c0,11.65.36,23.25,1.4,34.89,6.19,68.95,55.94,128.85,122.67,147.41,18.46,5.13,37.24,6.43,56.31,6.43q811.07-.08,1622.13.06,293.65,0,587.32,0c45.81,0,85.69-15.74,118.45-47.29,34.12-32.85,52.19-73.67,52.28-121.37q.4-210.75.15-421.51a167.07,167.07,0,0,0-2.09-25.84c-10.87-70-65.8-127-135.42-140.52C2487.88,911.1,2474,911,2460,911Zm-188.35,1590.2v.09H2097.8c3.33,0,6.67.14,10-.07,6-.36,6.85-1.41,5.43-7.52-1.13-4.85-2.92-9.55-4-14.41-8.83-38.26-16.85-76.68-22.07-115.63a1506,1506,0,0,1-13.58-187c-.17-20.06,1.95-19-18.91-19l-683.2,0c-6.33,0-12.63.05-18.89-1.29-16.92-3.63-29.2-18-29.29-34.55-.08-16.72,12.64-31.7,29.77-35.24,5.29-1.09,10.6-.9,15.91-.9q251.21,0,502.42,0,120.86,0,241.71,0c8.44,0,16.8.36,24.19,4.71,5,2.92,9.41,2.13,14.22.12,34.11-14.21,68-28.91,101.2-45.14a1607.83,1607.83,0,0,0,147.52-81.7c22-13.78,43.51-28.3,64.82-43.08,17.22-11.94,33.82-24.77,50.85-37,12.11-8.69,24.83-8.9,37.2-.56,8.27,5.57,16.07,11.83,24.19,17.62,18.42,13.15,36.85,26.29,55.41,39.22,4.71,3.28,6.26,2.31,6.45-3.68.94-28.42.12-56.64-10.68-83.57-23.8-59.33-67.13-95.27-129.67-108.22-12.83-2.65-25.82-2.35-38.79-2.35l-1043.78,0q-578.84,0-1157.65,0c-13.3,0-26.59-.11-39.79,2.41-43.85,8.35-79.15,30.55-106,66C89,1842,78.64,1878,78.6,1917.08q-.21,204.77,0,409.52a179.92,179.92,0,0,0,4.09,38.66c12.45,56.51,45.17,96.9,97.53,121.31,24,11.18,49.41,14.78,75.76,14.76Q713.42,2501.09,1170.88,2501.23Zm1762-305c0-2.66,0-5.33,0-8,0-4.66.07-9.32.05-14-.05-11.09-.22-11.33-10.41-15.27-37.88-14.65-75.25-30.44-112-47.76a1609.05,1609.05,0,0,1-144.5-76.84c-29.38-17.68-58.33-36-86.29-55.89-11.93-8.48-24.1-16.64-35.82-25.4-6.24-4.67-11.56-5.34-17.84-.21-6.69,5.46-13.83,10.39-20.91,15.36q-60.95,42.69-125.22,80.21-64.39,37.35-132.07,68.32-50.37,23.1-102.17,42.89c-9.22,3.52-9.2,3.93-9.57,13.83-.47,12.68,1.51,25.25,1.6,37.88a892.22,892.22,0,0,0,7,103.51c5.46,43.88,10.78,87.81,21.28,131,9.93,40.8,21.21,81,36.64,120.18a698.06,698.06,0,0,0,56.26,112.26c21,33.81,45.69,64.64,72.81,93.56,34.95,37.27,74,69.79,115.73,99.28,9.51,6.73,19.21,13.16,28.66,19.94,16.51,11.84,33.83,22.42,50.7,33.69,5.94,4,10.51,3.4,16.3-.23,20.6-12.9,40.66-26.6,60.8-40.19,19-12.84,37.48-26.53,55.42-40.84a772.66,772.66,0,0,0,79.51-72.6,625.6,625.6,0,0,0,44.51-52.49c28-37,51.17-77,70.22-119.33a772.37,772.37,0,0,0,38.59-105.92c15.9-55.83,25.32-113,32.24-170.52C2929.47,2280.66,2931.62,2238.46,2932.92,2196.22Z" transform="translate(-7.44 -8)" style="fill:url(#New_Gradient_Swatch_1)"/><path d="M666.35,285.55c90.16-.37,174.59,71.54,174.09,175.18-.48,97.67-79.34,173-174.55,172.72-93.59-.25-173.42-74-173.57-173.68C492.16,356.56,576.67,285.17,666.35,285.55ZM769.13,459.92c.84-55.62-43.23-103.66-103-103.49-59.42.17-101.94,47.63-102.65,102.05-.62,47.77,34.62,103.68,102.7,103.87C733.6,562.54,769.94,507.57,769.13,459.92Z" transform="translate(-7.44 -8)" style="fill:url(#New_Gradient_Swatch_1-2)"/><path d="M1740.24,423.75h369.59c6.67,0,13.31,0,19.83,1.77,16.34,4.41,26.84,18.58,26.28,35.62-.54,16.22-12.1,29.58-28.38,32.87a84.43,84.43,0,0,1-16.87,1.5q-371.59,0-743.19-.05a74.24,74.24,0,0,1-12.91-1c-19.86-3.52-31-17.26-30.37-37,.6-17.73,14.47-31.74,33.45-33.55,4.29-.41,8.65-.24,13-.24h369.6Z" transform="translate(-7.44 -8)" style="fill:url(#New_Gradient_Swatch_1-3)"/><path d="M666.42,1464.79c-94.56-.84-174.27-74.86-174.19-174.17.09-102.41,83.31-174.09,174.11-174.1s174.08,71.6,174.19,174C840.64,1390.63,760.21,1463.94,666.42,1464.79Zm.34-72c55.17,2,102.55-44.82,102.43-102.64C769.08,1238,728.6,1187.4,666,1187.62c-62.8.23-102.68,51.39-102.44,103.24C563.87,1347.94,610.8,1395,666.76,1392.79Z" transform="translate(-7.44 -8)" style="fill:url(#New_Gradient_Swatch_1-4)"/><path d="M1739.5,1326.61H1370.93c-6.33,0-12.63,0-18.87-1.4-16.45-3.72-28.4-17.76-28.78-34-.36-15.87,11.33-30.65,27.52-35,5.89-1.6,11.86-1.47,17.85-1.47l437.48,0,304.64,0c6,0,11.95,0,17.85,1.51,17.12,4.24,27.89,18.21,27.38,35.7-.48,16.78-12.09,30-29.05,33.27a98.93,98.93,0,0,1-18.89,1.35q-184.29,0-368.56,0Z" transform="translate(-7.44 -8)" style="fill:url(#New_Gradient_Swatch_1-5)"/><path d="M666.71,1947.6c90.31-.23,174.08,71.83,173.89,174.38-.19,99.47-80.08,173.92-174.55,173.76-93.83-.15-173.95-74.37-173.91-174.43C492.18,2019.13,576.41,1946.94,666.71,1947.6Zm-.18,276.27c53.29,2.11,102.56-42.56,102.53-102.41,0-54.27-42-102.79-102.79-102.71s-102.64,48.75-102.54,103C563.84,2181.32,613,2226.08,666.53,2223.87Z" transform="translate(-7.44 -8)" style="fill:url(#New_Gradient_Swatch_1-6)"/></svg>