<svg id="Layer_1" data-name="Layer 1" xmlns="http://www.w3.org/2000/svg" xmlns:xlink="http://www.w3.org/1999/xlink" viewBox="0 0 2994.78 2989.88"><defs><style>.cls-1{fill:url(#New_Gradient_Swatch_1);}</style><linearGradient id="New_Gradient_Swatch_1" x1="495.26" y1="2975.26" x2="2989.44" y2="481.08" gradientUnits="userSpaceOnUse"><stop offset="0.1" stop-color="#c6192e"/><stop offset="0.9" stop-color="#13b3b6"/></linearGradient></defs><title>rdw_firewall_icon</title><path class="cls-1" d="M1172.23,938.22c6-15.69,11.25-30.05,16.88-44.28a1052.17,1052.17,0,0,1,138.68-246.76c60.81-80.76,116.62-164.91,165.75-253.3,38.1-68.55,72.14-139,96.59-213.8,10.27-31.4,18.8-63.24,22.84-96.14,1.47-12,.62-24,.82-35.95.16-9.33,0-18.67.1-28,0-3.71.22-7.61,4.46-9.2,3.76-1.41,6.38,1,8.75,3.4,20.75,20.69,43.1,39.68,62.57,61.76,24.09,27.3,46.51,55.78,66.49,86.18,36.79,56,65.61,115.93,88,179,27.31,76.89,45.39,156.05,58.26,236.52,7.84,49,13.75,98.29,20.07,147.51,4.36,34,8.69,68.1,17.32,101.41a99.36,99.36,0,0,0,4.73,14.2c4.08,9.49,8.49,11.3,18.18,7.5a49.81,49.81,0,0,0,20.56-15.43c9-11,15.14-23.54,20-36.71C2014,767.18,2019,737,2022,706.38c2.53-25.62,1.32-51.27,1.78-76.91.08-4.48-1.49-10.16,3.9-12.45,5.93-2.52,9.18,2.7,12.24,6.4,12.75,15.45,27.77,28.73,41,43.74,22.86,25.92,41.36,54.72,58.17,84.71,31.09,55.44,54.55,114.19,75.27,174.12.65,1.89,1.31,3.78,1.94,5.68.95,2.89,2.48,4.65,5.9,3.49,5.18-1.77,10.57-1.13,15.88-1.13q371.47,0,743,0c19.37,0,19.37,0,19.37,19.21q0,264,0,528c0,3.66,0,7.33-.17,11-.2,4.8-2.95,7.29-7.61,7.57-4,.23-8,.24-12,.24q-191,0-382,0c-16.6,0-16.62,0-16.62,16.28q0,200.49,0,401c0,17.31-.41,16.46,16.36,16.46l383,0c19.05,0,19.06,0,19.06,18.51q0,264.48.06,529c0,18.2-.32,18.56-18.3,18.56q-191.49,0-383,0c-17.13,0-17.15,0-17.15,16.81q0,230,0,460c0,3,0,6,0,9-.22,11.16-2.49,13.58-13.33,14.11-3.33.16-6.66.08-10,.08-283.32,0-566.64,1-850-.17-561.28-2.3-1122.57-.25-1683.85-1.09-19.18,0-19.19,0-19.19-19.64V2453A105.91,105.91,0,0,1,6,2442c.63-6.1,2.68-8,9-8.53,3.64-.3,7.32-.15,11-.15q192,0,384,0c16.58,0,15.83.71,15.83-15.82v-402c0-15.58,0-15.61-15.25-15.61q-191.49,0-383,0a90.37,90.37,0,0,1-13-.53c-5.93-.85-7.95-3.23-8.59-9.25a86.85,86.85,0,0,1-.18-9q0-264.48,0-529c0-17.74.86-18.58,18.66-18.59l385,0c16.92,0,16.36,1.21,16.36-16.31q0-231.49,0-463c0-20.36.25-20.61,20.66-20.61l706,.07C1159,933.78,1165.82,932.76,1172.23,938.22ZM2071.31,757c-2.65,11.43-4.7,20.82-7,30.14-6.83,27.35-16.52,53.6-32.93,76.75-17.92,25.28-41.45,42.12-73.15,45.61-25.44,2.79-45.79-5.51-60.11-27.29-7.59-11.55-12.54-24.23-16.49-37.36-10.32-34.29-15-69.67-19.52-105-7.11-55.16-13.42-110.43-22.4-165.34-12.88-78.78-30.77-156.28-59-231.13-26.05-69-60.09-133.66-105.41-192.1-2.93-3.78-5.63-7.91-9.78-10.79-2.23,3.22-2.53,6.26-3.27,9.14a854.59,854.59,0,0,1-26.28,82.88c-26.54,71.43-60.47,139.37-98.09,205.49-48.36,85-102.71,166.09-161.16,244.41-31,41.48-59.54,84.4-83.79,130.16a1070.87,1070.87,0,0,0-99.18,269.4c-11.86,53.11-20,106.81-22.88,161.1-1.47,27.86-3.16,55.79-1.33,83.88,1.76,26.92,2.94,53.84,6.4,80.63,9.48,73.41,29.52,143.47,65.26,208.65q57,103.93,157.59,166.6c2.66,1.64,5.2,4,8.79,3.6.93-4-1-6.94-2-10-16-52.24-13.16-103.89,4.56-155.15,11.33-32.76,29-62.13,48.33-90.59,28.85-42.46,61.22-82.39,90.41-124.61,23.37-33.81,44.67-68.77,59.44-107.32,23.53-61.43,24.13-122.88.11-184.41-9.51-24.36-22-47.09-36.3-68.86q-31.89-48.44-64-96.75c-1.28-1.94-2.62-3.87-3.75-5.91-1.55-2.8-2.14-5.75.56-8.21,2.32-2.11,5-1.6,7.42-.14,3.71,2.24,7.32,4.64,10.89,7.09,22.56,15.43,44.9,31.18,67.68,46.28,56.51,37.44,106.24,82.37,150.31,133.82,45.2,52.78,82.7,110.38,109.81,174.44,30.31,71.63,45.65,146.06,39.75,224.18a4.17,4.17,0,0,0,1.89,4.18c8.93-6.42,17.64-12.1,17.26-26-.79-28.65-.27-57.33-.18-86,0-4.18-1-9.5,4.68-10.82,5.84-1.37,6.92,4,8.56,7.81,10.43,24.54,20.57,49.2,31.22,73.64a448.81,448.81,0,0,1,27.31,84.51,388,388,0,0,1,8.35,107.31c-2.33,36.49-11,71.72-24.92,105.6-1.25,3-3.66,6-2.24,10.55a413.13,413.13,0,0,0,61.76-47c49.35-44.94,88.13-98,118.71-157.12,29.41-56.88,50.34-116.83,63.76-179.41,6.3-29.36,11.22-59,12.51-89,1.31-30.6,1.39-61.25-1.32-91.89q-4.44-50.34-13.66-100A1329.37,1329.37,0,0,0,2144,909.27,989,989,0,0,0,2089.76,788C2084.46,778,2079.13,768,2071.31,757Zm-1617,1176.41v0H829.14c3,0,6-.09,9,0,4.8.09,7.64-1.81,7.56-7,0-2.66.07-5.33.07-8q0-58.47,0-117,0-144.43,0-288.89c0-12-.47-12.33-12.32-12.47h-2q-377.34,0-754.7,0c-14.75,0-14.78,0-14.79,15.11q0,201.42,0,402.84c0,15.27,0,15.29,15.46,15.29ZM1714,2000.08v.05H1339.13c-17.61,0-17-.93-17,16.81q0,200.43,0,400.85c0,2-.05,4,0,6,.3,8.42,1,9.21,9.09,9.55,2,.08,4,0,6,0l753.73.17c14.89,0,14.92,0,14.92-14.8q0-201.43,0-402.86c0-15.78,0-15.8-16.06-15.8Zm840,433.47v.08h374.94c17.31,0,17.21,1.28,17.21-16.67q0-200,0-399.92c0-17,0-17-17-17l-750.86,0c-16.11,0-16.13,0-16.13,15.71l0,401.93c0,15.83,0,15.84,15.86,15.84Zm-419.86,499.84v.07H2511c15,0,15.06,0,15.06-14.74q0-201.45,0-402.91c0-15.81,0-15.83-16.17-15.83l-751.82,0c-16,0-16,0-16,15.87q0,201,0,401.91c0,15.59,0,15.6,16.1,15.6ZM874,2432.17h375.9c15.94,0,16,0,16-16l0-399.89c0-16.32,0-16.34-16.61-16.34l-750.81,0c-16.53,0-16.54,0-16.54,16.44q0,199.44,0,398.9c0,16.85,0,16.86,17.16,16.86ZM454.1,2932.07H831c14.73,0,14.75,0,14.75-15.08q0-200.92,0-401.85c0-15.22,0-15.24-15.62-15.24H78.37c-16.39,0-16.4,0-16.4,16.6q0,199.44,0,398.86c0,16.71,0,16.72,17.27,16.72Zm839.16,0h375.86c16.74,0,16.75,0,16.75-17.16q0-199.43,0-398.85c0-16.1,0-16.13-15.79-16.13l-751.71-.05c-16.23,0-16.24,0-16.24,16.68v398.85c0,16.63,0,16.65,16.25,16.65ZM2593.09,1000.14v0H2256.2c-3,0-6-.08-9,0-8.49.34-9.5,1.47-7.56,9.56,3.09,13,6.5,25.84,9.68,38.78,15.53,63.21,26.5,127.21,30.38,192.19,3.59,60.13-.9,119.84-14.49,178.7-3.31,14.35-3.22,14.39,11.29,14.4l654.79,0c14.81,0,14.85,0,14.85-15.09q0-201.45,0-402.88c0-15.75,0-15.77-16.17-15.77Zm-1441.53,0h-24.49l-627.95,0c-17.18,0-17.2,0-17.2,16.71q0,200,0,400c0,2.67-.08,5.34.06,8,.41,7.47,1.33,8.32,9,8.69,1.66.07,3.33,0,5,0l608,0c2.66,0,5.33,0,8-.12,4.26-.14,5.86-2.64,5.57-6.59-.14-2-.54-4-.76-6-1.65-14.56-3.48-29.1-4.86-43.69-3.11-32.9-2.4-65.9-2.42-98.89,0-38.73,3.83-77.17,9-115.48a1117,1117,0,0,1,32.45-155.45C1151.53,1005.21,1152.38,1003,1151.56,1000.1Zm141.86,933.31v.07h375.94c17,0,16.58,1,16.58-16.18q0-200.46,0-400.93c0-2.67.1-5.34-.09-8-.47-6.85-1.42-7.76-8.54-8.18-2.66-.15-5.33-.06-8-.06q-47.49,0-95,0c-3.64,0-7.84.57-10.81-1-6.15-3.19-9-.35-12.24,4.17-11.48,16-23.41,31.6-34.75,47.66-17.5,24.8-34.3,50-46,78.28-15.25,36.94-20.86,74.92-12.32,114.42,7.08,32.79,22.71,61.16,45.83,85.17,22.88,23.75,46.57,46.74,69.89,70.08,2.12,2.12,4.25,4.24,6.22,6.49s3.55,5.09,1.59,8.15-5,3.08-8.06,2.4c-3.24-.73-6.42-1.77-9.58-2.81-28.17-9.3-56.3-18.7-84.48-27.93a541.08,541.08,0,0,1-98.65-43.4,493.07,493.07,0,0,1-150.27-131.24c-46.35-60.77-77.13-129-96.53-202.62-2.37-9-2.35-8.9-11.36-8.08-3.64.33-7.33.2-11,.2l-194,0c-15.78,0-15.8,0-15.8,16.06q0,201,0,401.94c0,15.32,0,15.33,15.36,15.33Zm840.61.27v.07H2510c16.15,0,16.17,0,16.17-15.71q0-201,0-401.93c0-16,0-16-16-16q-123.46,0-247,0c-5,0-10,.65-14.88-1-3.4-1.2-5,.35-6,3.31-.52,1.58-1.1,3.14-1.63,4.72a748.94,748.94,0,0,1-55.49,125c-36,64.68-81.23,121.92-138,169.68-42.67,35.92-89.91,64.33-142.33,83.74-41,15.16-83.12,26.63-124.61,40.18-4.32,1.41-9.54,4-12.45-1.63-2.62-5,2.29-7.84,5.33-10.62,24.11-22,48-44.24,72.57-65.76,28.94-25.38,49.91-56.17,64.21-91.62a268.67,268.67,0,0,0,17.38-138.24c-1.5-11.21-3.68-22.36-6.06-33.42-1.63-7.55-3.23-7.9-9-3.15-3.85,3.18-7.54,6.56-11.43,9.7-27.31,22.07-57.93,39.18-87.37,58a19.32,19.32,0,0,1-4.45,2.23c-5.12,1.64-8.82-.93-8.58-6.21a46.49,46.49,0,0,1,1.79-8.79c4.56-18.44,9.45-36.8,13.67-55.32,5.34-23.41,9.4-47,10-71.13.23-9.7.11-9.65-10-9.63-19.33,0-38.66,0-58,0-16,0-16,0-16,15.86l0,401.93c0,15.7,0,15.72,16,15.72Zm-452.76-785.15c-1.46,3.4-.35,6,.08,8.55,3,18.1,5.1,36.37,4.34,54.68a333.62,333.62,0,0,1-15.1,86.38c-14,44.63-36.25,85.09-61.32,124.21-1.91,3-6.09,5.91-4.46,9.43,1.77,3.81,6.62,1.83,10.06,1.84q101,.27,202,.29c6.79,0,7.19-.39,6.07-7.61a464,464,0,0,0-27.65-102c-25.15-62.91-61.89-118.54-106-169.58C1687.19,1152.3,1685.5,1149.13,1681.27,1148.53Z" transform="translate(-5.76 -10.38)"/></svg>